<svg width="112" height="26" xmlns="http://www.w3.org/2000/svg">
  <path d="M33.07 22.13c-3.57 0-6.46-2.9-6.46-6.46 0-3.57 2.9-6.47 6.5-6.47 3.57 0 6.46 2.9 6.46 6.47 0 3.56-2.9 6.46-6.45 6.46m0-16.76c-5.7 0-10.3 4.6-10.3 10.3 0 5.68 4.6 10.3 10.3 10.3 2.5 0 4.8-.92 6.6-2.42v2.15h3.67V15.67c0-5.7-4.6-10.3-10.27-10.3M10.34 22.13c-3.56 0-6.46-2.9-6.46-6.46 0-3.57 2.9-6.47 6.45-6.47s6.46 2.9 6.46 6.47c0 3.56-2.9 6.46-6.46 6.46m0-16.76c-2.46 0-4.72.87-6.5 2.3V0H.1v15.66c0 5.7 4.6 10.3 10.28 10.3s10.3-4.6 10.3-10.3c0-5.68-4.62-10.3-10.3-10.3m68.58 16.77c-3.56 0-6.46-2.9-6.46-6.46 0-3.57 2.9-6.47 6.46-6.47s6.45 2.9 6.45 6.47c0 3.56-2.84 6.46-6.4 6.46m0-16.76c-5.7 0-10.3 4.6-10.3 10.3 0 5.68 4.6 10.3 10.3 10.3 5.68 0 10.28-4.62 10.28-10.3 0-5.7-4.6-10.3-10.28-10.3m22.7 16.76c-3.57 0-6.47-2.9-6.47-6.46 0-3.57 2.9-6.47 6.48-6.47 3.58 0 6.47 2.9 6.47 6.47 0 3.56-2.9 6.46-6.45 6.46m0-16.76c-5.67 0-10.3 4.6-10.3 10.3 0 5.68 4.63 10.3 10.3 10.3 5.7 0 10.3-4.62 10.3-10.3 0-5.7-4.6-10.3-10.3-10.3M56 22.13c-3.55 0-6.45-2.9-6.45-6.46 0-3.57 2.9-6.47 6.46-6.47 3.6 0 6.5 2.9 6.5 6.47 0 3.56-2.9 6.46-6.45 6.46zm6.5-14.45c-1.77-1.44-4.03-2.3-6.5-2.3-5.67 0-10.28 4.6-10.28 10.3 0 5.67 4.6 10.28 10.3 10.28 5.67 0 10.28-4.6 10.28-10.3V0h-3.8v7.68z" fill="#783BF9" fill-rule="evenodd"/>
</svg>
